OpenSim_Sub09_EMGBaseline_GRF.mot
version=1
nRows=46
nColumns=19
inDegrees=no
endheader
time	lFx	lFy	lFz	lCOPx	lCOPy	lCOPz	rFx	rFy	rFz	rCOPx	rCOPy	rCOPz	lMx	lMy	lMz	rMx	rMy	rMz
18.25000000	7.13885016	0.94184790	-1.58386832	-0.00005582	0	0.00003261	2.28054505	699.38343299	-58.10771000	0.91431338	0	-0.41694021	0	0.00010816	0	0	3.56763368	-0.00000000
18.26000000	7.12283147	0.91457534	-1.49967900	-0.00000843	0	-0.00000016	5.97380608	705.02322304	-57.99323606	0.90798946	0	-0.41705965	0	-0.00033964	0	0	3.75547500	-0.00000000
18.27000000	7.14810519	0.82590862	-1.37804793	0.00018588	0	-0.00012412	9.77489369	709.25347289	-57.85507452	0.90193772	0	-0.41722171	0	-0.00144906	0	0	3.90924478	0.00000000
18.28000000	7.20063082	0.76271569	-1.30982319	0.00060056	0	-0.00037908	13.71552155	712.10890551	-57.81106448	0.89610483	0	-0.41738542	0	-0.00314459	0	0	4.09662135	0
18.29000000	7.24688898	0.77141647	-1.27635188	0.00113219	0	-0.00068889	17.70473320	713.68352756	-57.96756653	0.89033456	0	-0.41754011	0	-0.00412422	0	0	4.30606752	0
18.30000000	7.28358093	0.79936148	-1.24884834	0.00118598	0	-0.00066979	21.56080454	714.27077108	-58.36262983	0.88476442	0	-0.41763548	0	-0.00069150	0	0	4.45988575	0.00000000
18.31000000	7.37422974	0.70350418	-1.21651293	-0.00066539	0	0.00056338	25.23231391	713.99831496	-58.95870479	0.87936173	0	-0.41765875	0	0.01352335	0	0	4.54195235	0
18.32000000	7.53632613	0.24433121	-1.24575916	-0.00653243	0	0.00426308	28.63475534	713.04725661	-59.66158203	0.87424504	0	-0.41757542	0	0.04398817	0	0	4.57550226	0
18.33000000	7.57198275	-0.57890240	-1.31839441	-0.01745873	0	0.01090390	31.56972487	711.48358969	-60.36866485	0.86959986	0	-0.41735103	0	0.08327483	0	0	4.52890259	-0.00000000
18.34000000	7.16246068	-1.33856797	-1.26048557	-0.02863364	0	0.01718842	33.92772673	709.26835173	-61.02952151	0.86563186	0	-0.41698672	0	0.08792837	0	0	4.41710963	0
18.35000000	6.02406529	-0.83831376	-0.85842783	-0.02138495	0	0.01123075	35.65892222	706.59125942	-61.53063851	0.86230212	0	-0.41651965	0	-0.04680742	0	0	4.27158100	0
18.36000000	4.13472120	3.23777920	0.15233359	0.04316173	0	-0.03082314	36.94322057	704.02436566	-61.76164498	0.85939610	0	-0.41596007	0	-0.47659141	0	0	4.08565251	0
18.37000000	2.52418835	13.93989746	1.85787375	0.21311499	0	-0.13686941	37.93623106	702.09470433	-61.81526006	0.85667136	0	-0.41532368	0	-1.28033958	0	0	3.85670278	0
18.38000000	3.15166103	33.93778633	3.37253028	0.49392162	0	-0.30563800	38.76653924	700.71122365	-61.95428675	0.85401944	0	-0.41465070	0	-2.13754717	0	0	3.63966075	-0.00000000
18.39000000	5.71525904	64.84843596	2.33028859	0.79991655	0	-0.48118675	39.51387125	699.50765694	-62.31237992	0.85150434	0	-0.41397515	0	-2.21374202	0	0	3.39942244	0
18.40000000	7.76200473	105.69926801	-1.27014516	1.01034927	0	-0.59587125	40.38973432	698.27736992	-62.93974199	0.84904498	0	-0.41328240	0	-1.03900495	0	0	3.09346831	0
18.41000000	5.43091136	153.52957327	-5.24933715	1.10121138	0	-0.64206198	41.58871622	697.08193665	-63.89112388	0.84656822	0	-0.41258899	0	1.01139515	0	0	2.76621264	0
18.42000000	-2.70608181	206.54908417	-7.54715121	1.11990062	0	-0.64937565	43.22790436	696.40244685	-65.10946832	0.84378282	0	-0.41193066	0	3.17902540	0	0	2.43546750	0
18.43000000	-14.07626199	263.78301361	-6.93022038	1.11286197	0	-0.64396903	45.64878680	697.03783273	-66.26012569	0.84031727	0	-0.41136986	0	4.77699549	0	0	2.11861800	0
18.44000000	-24.79821180	321.83493691	-3.76957620	1.10366321	0	-0.63888026	49.32358975	699.58157530	-66.79030010	0.83579362	0	-0.41100995	0	5.54602143	0	0	1.91435059	0
18.45000000	-32.66910656	374.65330412	1.45332486	1.09795965	0	-0.63749317	54.31996125	703.63329471	-66.28663054	0.83025805	0	-0.41087457	0	5.44940266	0	0	1.87651282	0
18.46000000	-37.73720416	417.31397623	8.18287185	1.09439775	0	-0.63900643	60.07646608	707.21912440	-65.04632638	0.82405417	0	-0.41087374	0	4.66252079	0	0	1.92374091	0
18.47000000	-41.31869936	449.46755659	15.75577795	1.09134244	0	-0.64189932	65.88271890	708.21045579	-63.78047490	0.81764230	0	-0.41092995	0	3.48946589	0	0	2.04789893	0
18.48000000	-44.96866172	474.11581013	24.00302074	1.08852332	0	-0.64506436	71.31924132	705.12118806	-62.69263529	0.81151259	0	-0.41099050	0	2.09344366	0	0	2.16890679	0
18.49000000	-48.36159405	494.23304908	32.78016685	1.08553382	0	-0.64795466	76.35074925	697.12283755	-61.69064024	0.80583277	0	-0.41099950	0	0.50990386	0	0	2.21449586	-0.00000000
18.50000000	-50.49527090	513.26919422	41.69745742	1.08242030	0	-0.65054385	80.69052298	683.75693981	-60.52697981	0.80042407	0	-0.41093338	0	-1.13683752	0	0	2.17259482	0
18.51000000	-51.95317892	534.92948973	49.99933966	1.07879070	0	-0.65283139	83.95386330	664.56648318	-58.77323094	0.79513573	0	-0.41080555	0	-2.58220992	0	0	2.05868797	0
18.52000000	-52.53736847	561.03215418	56.61854183	1.07455667	0	-0.65472665	85.99977516	638.86891620	-55.99197118	0.79008512	0	-0.41066826	0	-3.55494523	0	0	1.89802468	0
18.53000000	-52.08738125	590.28124776	61.28174228	1.07012372	0	-0.65618799	86.91647461	605.90061647	-51.94541284	0.78531543	0	-0.41067581	0	-4.04898569	0	0	1.79032832	-0.00000000
18.54000000	-50.85796928	619.80655121	64.02162555	1.06569050	0	-0.65728694	86.34311800	565.48370945	-46.34529353	0.78083917	0	-0.41092980	0	-4.17357877	0	0	1.79537071	-0.00000000
18.55000000	-49.03644358	647.18686861	64.99181300	1.06101394	0	-0.65814633	83.52134468	518.34724167	-39.09469094	0.77668276	0	-0.41143193	0	-4.01632218	0	0	1.87740624	0.00000000
18.56000000	-46.79321648	671.18919910	64.72216457	1.05588306	0	-0.65886204	78.05423492	465.73682772	-30.49647032	0.77271715	0	-0.41217185	0	-3.66575413	0	0	2.05519140	-0.00000000
18.57000000	-44.31913673	691.47867160	63.79995672	1.05046395	0	-0.65949456	70.06028888	409.17402771	-21.17295404	0.76902988	0	-0.41319484	0	-3.21306909	0	0	2.29759322	0
18.58000000	-41.87955624	708.08340699	62.65472961	1.04497837	0	-0.66008913	59.89812805	350.56116540	-12.32265305	0.76652087	0	-0.41457438	0	-2.76987083	0	0	2.44795536	-0.00000000
18.59000000	-39.50880403	720.91301545	61.56891413	1.03958872	0	-0.66068640	48.25432468	291.95726729	-5.28060992	0.76692006	0	-0.41664581	0	-2.43364626	0	0	2.37060388	0
18.60000000	-37.13499327	729.89939493	60.73452065	1.03433434	0	-0.66131284	36.20854892	235.58711762	-0.77070427	0.77257162	0	-0.42013576	0	-2.22573603	0	0	2.06771643	0
18.61000000	-34.71680039	735.18286979	60.16274851	1.02913360	0	-0.66197271	24.78300067	184.16245063	1.12056837	0.78434285	0	-0.42544546	0	-2.09255187	0	0	1.59537620	0.00000000
18.62000000	-32.37940384	736.94081524	59.84770264	1.02403124	0	-0.66269986	14.84844117	140.12071771	0.93118327	0.79800146	0	-0.43087864	0	-2.05432557	0	0	1.04734517	0
18.63000000	-30.28504105	735.10347925	59.78665924	1.01900830	0	-0.66353718	6.55087590	104.76039342	-0.50136536	0.79854109	0	-0.42945082	0	-2.13573460	0	0	0.58840562	-0.00000000
18.64000000	-28.48646454	729.53101008	59.93487348	1.01410526	0	-0.66452962	-0.33667284	77.64776958	-2.31648920	0.75413564	0	-0.40517889	0	-2.35209781	0	0	0.30050170	0.00000000
18.65000000	-27.01462984	720.77289615	60.22081938	1.00923204	0	-0.66569630	-5.57678039	56.89256693	-3.74726167	0.62344867	0	-0.33511581	0	-2.70510699	0	0	0.17266430	-0.00000000
18.66000000	-25.92074261	710.13641666	60.42132347	1.00447445	0	-0.66698777	-8.74971230	40.48649148	-4.51733195	0.39481366	0	-0.21196304	0	-3.13359698	0	0	0.14171794	-0.00000000
18.67000000	-25.12073302	699.02713218	60.18547222	0.99985010	0	-0.66834575	-10.18218437	27.22771815	-4.49649351	0.16205531	0	-0.08685254	0	-3.52774614	0	0	0.07329766	0.00000000
18.68000000	-24.29470396	688.32438303	59.43107278	0.99532798	0	-0.66971822	-9.65805778	16.38026035	-3.61432499	0.02660809	0	-0.01416419	0	-3.86053653	0	0	0.02175327	-0.00000000
18.69000000	-23.20877055	678.47013761	58.47388969	0.99073548	0	-0.67105569	-6.62508132	7.76158806	-2.08560682	-0.02127303	0	0.01147879	0	-4.18567783	0	0	-0.00178207	0.00000000
18.70000000	-21.79329753	669.85980514	57.53314883	0.98601684	0	-0.67234541	-2.89289297	2.09034375	-0.51754122	-0.02417781	0	0.01299520	0	-4.48014434	0	0	-0.00717438	0.00000000
